<svg width="36" height="41" viewBox="0 0 36 41" fill="none" xmlns="http://www.w3.org/2000/svg">
<path d="M17.7517 40.3576H17.438C17.3702 40.3231 17.3002 40.2931 17.2286 40.2677C12.8826 39.0451 8.54055 37.8057 4.18474 36.6186C3.46598 36.4211 3.12871 36.19 3.09233 35.3574C3.00679 33.3922 2.77179 31.4338 2.6007 29.4724C2.45846 27.8633 2.31687 26.2549 2.17594 24.6471C2.0042 22.6983 1.8318 20.7501 1.65875 18.8026C1.51716 17.1941 1.37622 15.5857 1.23595 13.9773C1.0642 12.0291 0.89116 10.0809 0.716796 8.13275C0.542432 6.18458 0.369048 4.23607 0.196651 2.28724C0.12979 1.53273 0.0688278 0.778215 0 0H35.1808C35.171 0.172827 35.1671 0.326892 35.1533 0.479967C35.0068 2.11442 34.8583 3.74788 34.7118 5.38233C34.5427 7.30515 34.3805 9.22798 34.2104 11.1498C34.0403 13.0716 33.8613 14.9935 33.6922 16.9153C33.5231 18.8372 33.3638 20.761 33.1937 22.6828C32.997 24.9059 32.7896 27.1269 32.5939 29.351C32.3982 31.575 32.2085 33.7714 32.0246 35.9816C32.003 36.2423 31.9007 36.3559 31.6411 36.427C28.0824 37.4146 24.5266 38.4107 20.9738 39.4154C19.8981 39.7196 18.8264 40.0435 17.7517 40.3576ZM7.88275 22.9702C7.87109 23.0269 7.86353 23.0843 7.86013 23.142C8.06366 25.3908 8.26524 27.6405 8.48647 29.8872C8.49729 29.9988 8.6723 30.1489 8.79816 30.1835C11.6365 30.9841 14.4778 31.7742 17.322 32.5537C17.4824 32.5988 17.6515 32.6022 17.8136 32.5636C20.6837 31.7735 23.5499 30.9834 26.4191 30.1934C26.6255 30.1371 26.714 30.0561 26.7308 29.829C26.8782 28.0513 27.0395 26.2737 27.2007 24.496C27.4269 21.9994 27.6547 19.5025 27.8841 17.0052C28.1188 14.3901 28.3508 11.7746 28.5802 9.15885C28.6304 8.58901 28.6687 8.01819 28.713 7.43848H6.47177L6.75692 11.6051H23.9491C23.8459 12.9482 23.7358 14.2558 23.6482 15.5653C23.6099 16.143 23.7053 16.1144 23.0829 16.1213C17.9405 16.1819 12.7977 16.2405 7.65463 16.2971C7.51501 16.2971 7.37538 16.2971 7.19742 16.2971C7.34785 17.733 7.49239 19.1097 7.6389 20.5042H23.2127C23.2225 20.5363 23.2284 20.5695 23.2304 20.603C23.0229 22.5208 22.8076 24.4377 22.6119 26.3576C22.5834 26.643 22.431 26.7191 22.1989 26.7813C20.7614 27.1645 19.3278 27.5615 17.8883 27.9368C17.6882 27.9871 17.4788 27.9871 17.2787 27.9368C15.8904 27.5723 14.5119 27.1694 13.1196 26.8228C12.7263 26.724 12.5955 26.563 12.5729 26.1739C12.5168 25.2051 12.4244 24.2373 12.3241 23.2704C12.3133 23.1648 12.157 22.989 12.0655 22.988C10.6781 22.9653 9.29274 22.9702 7.88275 22.9702Z" fill="#E8E8E8"/>
</svg>
