<svg width="35" height="41" viewBox="0 0 35 41" fill="none" xmlns="http://www.w3.org/2000/svg">
<path d="M17.8639 40.2399H17.5577C17.4498 40.1819 17.3386 40.1303 17.2247 40.0852C12.5673 38.5472 7.90988 37.0093 3.25248 35.4714C2.97208 35.3752 2.83714 35.2551 2.82278 34.9475C2.78355 34.1055 2.71464 33.2634 2.65627 32.4224C2.52101 30.4711 2.38512 28.5199 2.24858 26.5686C2.10791 24.5798 1.96148 22.5911 1.81793 20.6014C1.67917 18.6376 1.54806 16.6729 1.40929 14.7091C1.26766 12.7226 1.12347 10.7339 0.976727 8.74289C0.830625 6.70256 0.685475 4.66222 0.541287 2.62188C0.50205 2.06823 0.471418 1.51361 0.436966 0.966675H35C34.9579 1.62222 34.9215 2.24797 34.8765 2.8718C34.7359 4.84805 34.5894 6.82431 34.4488 8.80056C34.3081 10.7768 34.1789 12.755 34.0382 14.7313C33.8727 17.0641 33.6975 19.397 33.532 21.7308C33.3922 23.7071 33.263 25.6843 33.1243 27.6615C32.9549 30.0838 32.773 32.506 32.6161 34.9302C32.597 35.2378 32.4955 35.3704 32.2103 35.4637C28.3951 36.7139 24.5824 37.9715 20.7723 39.2364C19.799 39.5671 18.8334 39.9074 17.8639 40.2399ZM8.02215 26.4417C8.02215 26.5715 8.01545 26.683 8.02215 26.7935C8.11785 28.1075 8.2193 29.4196 8.29203 30.7345C8.30734 31.0017 8.39731 31.1055 8.6356 31.1843C11.3851 32.0985 14.1364 33.0106 16.8744 33.9536C17.4171 34.1559 18.0141 34.1559 18.5568 33.9536C21.2948 33.0058 24.0462 32.0994 26.787 31.1767C26.9487 31.1228 27.1086 31.1026 27.1258 30.8479C27.2359 29.1389 27.3689 27.4308 27.4914 25.7227C27.6375 23.6958 27.7823 21.6687 27.9258 19.6411C27.9823 18.8424 28.033 18.0436 28.0895 17.2054H11.9334C11.7947 15.2272 11.6578 13.2837 11.519 11.3026H28.5077C28.6168 9.75793 28.724 8.24691 28.8312 6.71665H6.60483C6.957 11.7611 7.30822 16.7786 7.65753 21.8317H23.1772C23.1351 22.4709 23.0968 23.0698 23.0557 23.6686C22.9724 24.8932 22.8824 26.1168 22.8068 27.3424C22.7906 27.6077 22.6853 27.7269 22.424 27.8134C20.9493 28.2882 19.4822 28.79 18.0094 29.2706C17.8449 29.3294 17.6668 29.3381 17.4974 29.2956C15.9611 28.7983 14.4299 28.2879 12.9038 27.7643C12.844 27.7329 12.7918 27.6886 12.7509 27.6346C12.7101 27.5807 12.6816 27.5183 12.6674 27.4519C12.6081 27.1184 12.5938 26.7791 12.5612 26.4388L8.02215 26.4417Z" fill="#E8E8E8"/>
</svg>
