<svg width="54" height="54" viewBox="0 0 54 54" fill="none" xmlns="http://www.w3.org/2000/svg">
<path d="M10.125 49.5V38.25M10.125 15.75V4.5M4.5 10.125H15.75M4.5 43.875H15.75M29.25 6.75L25.3481 16.8949C24.7136 18.5447 24.3963 19.3696 23.9029 20.0634C23.4657 20.6784 22.9284 21.2157 22.3134 21.6529C21.6196 22.1463 20.7947 22.4636 19.1449 23.0981L9 27L19.1449 30.9019C20.7947 31.5364 21.6196 31.8537 22.3134 32.3471C22.9284 32.7843 23.4657 33.3216 23.9029 33.9366C24.3963 34.6304 24.7136 35.4553 25.3481 37.1051L29.25 47.25L33.1519 37.1051C33.7864 35.4553 34.1037 34.6304 34.5971 33.9366C35.0343 33.3216 35.5716 32.7843 36.1866 32.3471C36.8804 31.8537 37.7053 31.5364 39.3551 30.9019L49.5 27L39.3551 23.0981C37.7053 22.4636 36.8804 22.1463 36.1866 21.6529C35.5716 21.2157 35.0343 20.6784 34.5971 20.0634C34.1037 19.3696 33.7864 18.5447 33.1519 16.8949L29.25 6.75Z" stroke="white" stroke-width="2.5" stroke-linecap="round" stroke-linejoin="round"/>
</svg>
