<svg width="54" height="54" viewBox="0 0 54 54" fill="none" xmlns="http://www.w3.org/2000/svg">
<path d="M16.875 10.125C16.875 7.0184 19.3934 4.5 22.5 4.5C25.6066 4.5 28.125 7.0184 28.125 10.125V13.5H30.375C33.5201 13.5 35.0927 13.5 36.3331 14.0138C37.9871 14.6989 39.3011 16.0129 39.9862 17.6669C40.5 18.9073 40.5 20.4799 40.5 23.625H43.875C46.9816 23.625 49.5 26.1434 49.5 29.25C49.5 32.3566 46.9816 34.875 43.875 34.875H40.5V38.7C40.5 42.4804 40.5 44.3705 39.7643 45.8144C39.1172 47.0845 38.0845 48.1172 36.8144 48.7643C35.3705 49.5 33.4804 49.5 29.7 49.5H28.125V45.5625C28.125 42.7666 25.8584 40.5 23.0625 40.5C20.2666 40.5 18 42.7666 18 45.5625V49.5H15.3C11.5196 49.5 9.62947 49.5 8.18556 48.7643C6.91547 48.1172 5.88285 47.0845 5.23571 45.8144C4.5 44.3705 4.5 42.4804 4.5 38.7V34.875H7.875C10.9816 34.875 13.5 32.3566 13.5 29.25C13.5 26.1434 10.9816 23.625 7.875 23.625H4.5C4.5 20.4799 4.5 18.9073 5.01381 17.6669C5.6989 16.0129 7.01295 14.6989 8.66689 14.0138C9.90734 13.5 11.4799 13.5 14.625 13.5H16.875V10.125Z" stroke="white" stroke-width="2.5" stroke-linecap="round" stroke-linejoin="round"/>
</svg>
