<svg width="54" height="54" viewBox="0 0 54 54" fill="none" xmlns="http://www.w3.org/2000/svg">
<path d="M20.25 25.875L24.75 30.375L34.875 20.25M45 27C45 38.044 32.9536 46.0763 28.5705 48.6334C28.0723 48.924 27.8233 49.0693 27.4718 49.1447C27.199 49.2032 26.801 49.2032 26.5282 49.1447C26.1767 49.0693 25.9277 48.924 25.4295 48.6334C21.0464 46.0763 9 38.044 9 27V16.2396C9 14.4407 9 13.5412 9.29421 12.768C9.55412 12.085 9.97646 11.4756 10.5247 10.9924C11.1454 10.4454 11.9875 10.1296 13.6719 9.49799L25.736 4.97397C26.2037 4.79856 26.4376 4.71085 26.6782 4.67608C26.8916 4.64524 27.1084 4.64524 27.3218 4.67608C27.5624 4.71085 27.7963 4.79856 28.264 4.97397L40.3281 9.49799C42.0125 10.1296 42.8546 10.4454 43.4753 10.9924C44.0235 11.4756 44.4459 12.085 44.7058 12.768C45 13.5412 45 14.4407 45 16.2396V27Z" stroke="white" stroke-width="2.5" stroke-linecap="round" stroke-linejoin="round"/>
</svg>
