<svg width="149" height="25" viewBox="0 0 149 25" fill="none" xmlns="http://www.w3.org/2000/svg">
<path d="M5.12789 24.5044L0 1.88501H5.41436L8.76611 20.3061H9.13853L13.1492 1.88501H19.423L23.4336 20.3061H23.8346L27.1291 1.88501H32.257L27.1291 24.5044H20.2251L16.3863 6.11187H16.0712L12.2038 24.5044H5.12789Z" fill="#EBEBEB"/>
<path d="M42.9425 24.9901C41.5894 25.0016 40.2438 24.7893 38.9605 24.3617C37.8929 23.9622 36.9181 23.35 36.0957 22.5625C35.2694 21.7662 34.6415 20.7881 34.2623 19.7065C33.7949 18.4552 33.5618 17.129 33.5748 15.7938C33.5467 14.4553 33.7502 13.1221 34.1763 11.8525C34.5333 10.7041 35.1287 9.64346 35.9238 8.73951C36.7141 7.85796 37.6932 7.16494 38.7886 6.71177C39.9953 6.21312 41.2928 5.96998 42.5987 5.99777C43.8531 5.96501 45.101 6.18857 46.2656 6.65466C47.3786 7.06144 48.366 7.75049 49.1303 8.65384C49.8795 9.62711 50.4162 10.7459 50.7059 11.9382C51.0485 13.3873 51.1645 14.8805 51.0497 16.365H36.8979V13.509H48.3568L46.6093 14.8799C46.7507 13.9209 46.6623 12.9423 46.3515 12.0239C46.0902 11.32 45.608 10.7189 44.9764 10.3103C44.363 9.94255 43.6581 9.75449 42.9425 9.76767C42.1256 9.75276 41.3244 9.99237 40.6507 10.4531C39.9513 10.9556 39.4138 11.6503 39.1037 12.4523C38.5926 13.4949 38.3095 14.6339 38.2729 15.7938C38.1443 17.3329 38.6049 18.8634 39.5621 20.0778C39.9948 20.5335 40.5204 20.8915 41.1034 21.128C41.6865 21.3644 42.3135 21.4738 42.9425 21.4486C43.4979 21.463 44.0513 21.3758 44.5754 21.1916C44.9631 21.056 45.3199 20.8447 45.6248 20.5701C45.9298 20.2955 46.1768 19.9631 46.3515 19.5922C46.5234 19.2495 46.6666 18.9068 46.8099 18.5641L51.107 19.5066C50.9016 20.3044 50.5935 21.0724 50.1903 21.7913C49.7732 22.4698 49.2284 23.0614 48.586 23.5335C47.8601 24.0504 47.0441 24.4281 46.1796 24.6473C45.1236 24.921 44.0326 25.0365 42.9425 24.9901Z" fill="#EBEBEB"/>
<path d="M65.4593 24.9898C64.4664 24.9938 63.486 24.769 62.5946 24.333C61.7393 23.8894 61.025 23.2168 60.5319 22.3909C59.9556 21.4479 59.5757 20.3989 59.4147 19.3064H58.6412V24.5043H54.516V0H59.472V5.91188C59.472 6.45452 59.472 7.05428 59.472 7.6826C59.472 8.31091 59.3001 8.93922 59.1569 9.5961C59.0136 10.253 58.899 10.967 58.7845 11.6524H59.5293C59.7919 10.6435 60.2073 9.68047 60.7611 8.79643C61.2375 7.98721 61.9192 7.31737 62.7378 6.85436C63.6223 6.39918 64.6075 6.17327 65.6025 6.19747C67.0021 6.1641 68.3762 6.57408 69.5272 7.36844C70.672 8.20033 71.5562 9.33932 72.0768 10.6528C72.7093 12.2217 73.0116 13.9034 72.9649 15.5937C73.0091 17.293 72.707 18.9835 72.0768 20.5631C71.5475 21.8638 70.6645 22.9914 69.5272 23.8189C68.3365 24.6428 66.9073 25.0542 65.4593 24.9898ZM63.7118 20.9629C64.4762 20.9822 65.2242 20.7403 65.8317 20.2775C66.4628 19.7945 66.9404 19.1399 67.2068 18.3925C67.5391 17.4772 67.7041 16.5099 67.6938 15.5365C67.7217 14.5643 67.5662 13.5956 67.2354 12.6806C66.9715 11.9469 66.5167 11.2964 65.9177 10.7956C65.3162 10.3183 64.5663 10.0658 63.7977 10.0816C63.2845 10.0804 62.7769 10.1875 62.3081 10.3958C61.8585 10.5943 61.4504 10.8752 61.1049 11.224C60.7591 11.5917 60.452 11.9936 60.1882 12.4235C59.9528 12.8673 59.7701 13.3369 59.6439 13.8229C59.5338 14.2718 59.4761 14.7318 59.472 15.1938V15.7936C59.4797 16.3644 59.5664 16.9314 59.7298 17.4786C59.874 18.0855 60.1368 18.6581 60.5033 19.1636C60.8383 19.6792 61.2896 20.1095 61.8211 20.4203C62.3875 20.775 63.0429 20.9631 63.7118 20.9629Z" fill="#EBEBEB"/>
<path d="M72.965 6.05474V1.88501H91.328V6.05474H72.965ZM79.6685 24.5044V1.88501H84.4239V24.5044H79.6685Z" fill="#EBEBEB"/>
<path d="M100.151 24.9901C98.7983 25.0016 97.4527 24.7893 96.1693 24.3618C95.1017 23.9622 94.127 23.35 93.3046 22.5625C92.4788 21.7602 91.8427 20.7845 91.4425 19.7065C90.9893 18.4514 90.7567 17.1278 90.755 15.7938C90.7409 14.4563 90.944 13.1253 91.3566 11.8526C91.7065 10.7362 92.2709 9.69834 93.0181 8.79666C93.803 7.90908 94.7836 7.21497 95.8828 6.7689C97.0895 6.27025 98.387 6.02711 99.693 6.0549C100.947 6.02214 102.195 6.24569 103.36 6.71179C104.412 7.14076 105.339 7.82853 106.053 8.71097C106.823 9.67511 107.37 10.7964 107.657 11.9953C107.985 13.4467 108.101 14.9377 108.001 16.4221H93.8489V13.5661H105.308L103.56 14.937C103.702 13.9781 103.613 12.9994 103.303 12.081C103.041 11.3686 102.547 10.7649 101.899 10.3674C101.296 9.99908 100.6 9.81077 99.8935 9.82482C99.0766 9.80991 98.2754 10.0495 97.6017 10.5102C96.9023 11.0128 96.3648 11.7074 96.0547 12.5094C95.6401 13.5535 95.4451 14.6714 95.4818 15.7938C95.3531 17.3329 95.8137 18.8635 96.7709 20.0778C97.2037 20.5335 97.7292 20.8916 98.3123 21.128C98.8953 21.3645 99.5224 21.4738 100.151 21.4487C100.707 21.4611 101.26 21.374 101.784 21.1916C102.183 21.0376 102.551 20.8153 102.873 20.5347C103.151 20.2596 103.384 19.9413 103.56 19.5923C103.728 19.2601 103.871 18.9165 103.99 18.5641L108.287 19.5066C108.093 20.3082 107.785 21.0777 107.37 21.7914C106.964 22.4689 106.429 23.0607 105.795 23.5335C105.066 24.0448 104.251 24.422 103.388 24.6473C102.332 24.921 101.241 25.0365 100.151 24.9901Z" fill="#EBEBEB"/>
<path d="M120.262 24.9897C118.869 25.0375 117.479 24.8244 116.165 24.3614C115.079 23.9457 114.099 23.2918 113.301 22.4479C112.518 21.6326 111.922 20.6584 111.553 19.5919C111.15 18.3963 110.956 17.1403 110.98 15.8792C110.954 14.5595 111.158 13.2454 111.582 11.995C111.938 10.8634 112.534 9.82126 113.329 8.93912C114.117 8.05459 115.097 7.36105 116.194 6.91137C117.441 6.41293 118.776 6.1701 120.119 6.19738C121.434 6.1639 122.742 6.40718 123.957 6.91137C124.986 7.35373 125.891 8.04002 126.593 8.91055C127.291 9.79673 127.772 10.8335 127.997 11.9379L123.413 13.423C123.371 12.7769 123.175 12.1501 122.84 11.5952C122.55 11.0958 122.122 10.6895 121.608 10.4242C121.075 10.1587 120.486 10.0217 119.889 10.0244C119.322 10.0118 118.761 10.1443 118.259 10.4093C117.758 10.6743 117.333 11.0629 117.025 11.5381C116.658 12.0819 116.405 12.6938 116.28 13.3373C115.826 15.0848 115.866 16.9231 116.394 18.6495C116.664 19.4339 117.176 20.1135 117.855 20.5915C118.563 20.9921 119.362 21.2027 120.176 21.2027C120.989 21.2027 121.789 20.9921 122.496 20.5915C123.027 20.2657 123.446 19.7879 123.7 19.2206C123.979 18.6772 124.154 18.0863 124.215 17.4785L128.541 18.6495C128.423 19.5203 128.172 20.368 127.796 21.1627C127.42 21.9415 126.871 22.6251 126.192 23.1619C125.45 23.7633 124.606 24.2276 123.7 24.5328C122.585 24.8644 121.425 25.0186 120.262 24.9897Z" fill="#EBEBEB"/>
<path d="M131.348 24.5043V0H136.333V5.71196C136.333 6.16892 136.333 6.65444 136.333 7.16852C136.333 7.6826 136.333 8.16811 136.161 8.68219L135.989 10.0816L135.731 11.6524H136.505C136.776 10.5966 137.18 9.57936 137.708 8.62505C138.178 7.82231 138.836 7.14589 139.627 6.65444C140.506 6.18093 141.494 5.94462 142.492 5.96899C143.407 5.90413 144.323 6.07189 145.155 6.45653C145.987 6.84117 146.707 7.43011 147.248 8.16811C148.433 10.2193 148.981 12.5748 148.823 14.9368V24.4186H143.81V15.7936C143.91 14.3241 143.613 12.8548 142.951 11.5382C142.692 11.1034 142.323 10.7448 141.88 10.4989C141.437 10.2531 140.936 10.1288 140.43 10.1387C139.596 10.114 138.786 10.4107 138.166 10.967C137.53 11.5797 137.066 12.3477 136.82 13.1946C136.519 14.197 136.345 15.2334 136.304 16.2791V24.5329L131.348 24.5043Z" fill="#EBEBEB"/>
</svg>
