<svg width="1238" height="482" viewBox="0 0 1238 482" fill="none" xmlns="http://www.w3.org/2000/svg">
<path d="M258 353C254.686 353 252 350.314 252 347C252 343.686 254.686 341 258 341C261.314 341 264 343.686 264 347C264 350.314 261.314 353 258 353Z" fill="url(#paint0_linear_2003_3679)"/>
<path d="M32 128C27.5817 128 24 124.418 24 120C24 115.582 27.5817 112 32 112C36.4183 112 40 115.582 40 120C40 124.418 36.4183 128 32 128Z" fill="url(#paint1_linear_2003_3679)"/>
<path d="M12 482C5.37259 482 0 476.627 0 470C0 463.373 5.37259 458 12 458C18.6274 458 24 463.373 24 470C24 476.627 18.6274 482 12 482Z" fill="url(#paint2_linear_2003_3679)"/>
<path d="M1226 330C1219.37 330 1214 324.627 1214 318C1214 311.373 1219.37 306 1226 306C1232.63 306 1238 311.373 1238 318C1238 324.627 1232.63 330 1226 330Z" fill="url(#paint3_linear_2003_3679)"/>
<path d="M1191 8C1188.79 8 1187 6.20914 1187 4C1187 1.79086 1188.79 0 1191 0C1193.21 0 1195 1.79086 1195 4C1195 6.20914 1193.21 8 1191 8Z" fill="url(#paint4_linear_2003_3679)"/>
<defs>
<linearGradient id="paint0_linear_2003_3679" x1="258" y1="341" x2="258" y2="353" gradientUnits="userSpaceOnUse">
<stop stop-color="#B9AEDF"/>
<stop offset="1" stop-color="#1A1A32"/>
</linearGradient>
<linearGradient id="paint1_linear_2003_3679" x1="32" y1="112" x2="32" y2="128" gradientUnits="userSpaceOnUse">
<stop stop-color="#DD734F"/>
<stop offset="1" stop-color="#1A1A32"/>
</linearGradient>
<linearGradient id="paint2_linear_2003_3679" x1="12" y1="458" x2="12" y2="482" gradientUnits="userSpaceOnUse">
<stop stop-color="#88E5BE"/>
<stop offset="1" stop-color="#1A1A32"/>
</linearGradient>
<linearGradient id="paint3_linear_2003_3679" x1="1226" y1="306" x2="1226" y2="330" gradientUnits="userSpaceOnUse">
<stop stop-color="#88E5BE"/>
<stop offset="1" stop-color="#1A1A32"/>
</linearGradient>
<linearGradient id="paint4_linear_2003_3679" x1="1191" y1="0" x2="1191" y2="8" gradientUnits="userSpaceOnUse">
<stop stop-color="#DD734F"/>
<stop offset="1" stop-color="#1A1A32"/>
</linearGradient>
</defs>
</svg>
