<svg width="37" height="37" viewBox="0 0 37 37" fill="none" xmlns="http://www.w3.org/2000/svg">
<path d="M0.00428736 15.0973C0.063538 14.87 0.119932 14.6427 0.181324 14.4168C0.487185 13.2744 1.16062 12.2657 2.09672 11.5478C3.03282 10.8298 4.17904 10.443 5.35683 10.4475C9.59242 10.4475 13.8301 10.4475 18.07 10.4475C18.6604 10.4475 19.0694 10.1994 19.2365 9.74626C19.507 9.01778 18.9823 8.30508 18.1571 8.30078C16.6494 8.29289 15.1418 8.30078 13.6341 8.30078H10.4759C10.4495 8.27138 10.4203 8.25417 10.4203 8.23696C10.4538 6.85816 10.2511 5.46717 10.558 4.10342C11.0884 1.74447 13.2614 0.0114721 15.6607 0.00430203C17.3816 -0.00143401 19.103 -0.00143401 20.8248 0.00430203C23.6724 0.0136231 26.0703 2.41129 26.0774 5.26712C26.086 8.65378 26.086 12.04 26.0774 15.4257C26.0774 16.4818 25.3114 17.2447 24.2549 17.2454C20.2782 17.2454 16.3015 17.2454 12.3248 17.2454C10.3624 17.2454 8.82692 18.4414 8.38147 20.3113C8.30551 20.6601 8.26863 21.0163 8.27153 21.3732C8.25939 22.8395 8.26654 24.3058 8.26654 25.7728V26.2539C6.87093 26.1865 5.48961 26.2603 4.16397 26.0244C2.00239 25.6401 0.451875 23.887 0.0713863 21.6966C0.0537962 21.6416 0.0298365 21.5889 0 21.5396L0.00428736 15.0973ZM16.8179 4.36513C16.8289 4.2177 16.8096 4.06956 16.7611 3.92998C16.7125 3.79039 16.6359 3.66236 16.5359 3.55387C16.4359 3.44537 16.3147 3.35875 16.1799 3.29942C16.045 3.24008 15.8995 3.20931 15.7523 3.20901C15.6051 3.20871 15.4594 3.2389 15.3243 3.2977C15.1893 3.35649 15.0677 3.44262 14.9673 3.55071C14.8668 3.65879 14.7897 3.78652 14.7406 3.92591C14.6915 4.0653 14.6716 4.21335 14.682 4.36083C14.7012 4.6318 14.8218 4.88545 15.0195 5.0708C15.2173 5.25615 15.4775 5.35948 15.748 5.36002C16.0184 5.36057 16.2791 5.25829 16.4776 5.07374C16.676 4.88918 16.7976 4.63603 16.8179 4.36513Z" fill="#E8E8E8"/>
<path d="M15.0397 36.6369C14.5478 36.4799 14.0289 36.3795 13.5677 36.1572C11.5339 35.1749 10.4389 33.538 10.4181 31.2608C10.3875 27.9346 10.4096 24.6084 10.4103 21.2815C10.4103 20.13 11.1513 19.3929 12.307 19.3922C16.2594 19.3922 20.2123 19.3922 24.1657 19.3922C26.1296 19.3922 27.6637 18.1991 28.1062 16.3234C28.1835 15.9628 28.2206 15.5946 28.2169 15.2257C28.229 13.6755 28.2233 12.1261 28.224 10.5759C28.2258 10.5518 28.2294 10.5278 28.2347 10.5042C28.2519 10.4884 28.2697 10.459 28.2868 10.4597C29.6475 10.4934 31.0202 10.2905 32.3673 10.5924C34.7609 11.1294 36.477 13.3012 36.4827 15.7606C36.487 17.4656 36.487 19.1706 36.4827 20.8757C36.4749 23.781 34.0934 26.1815 31.2044 26.1858C26.9548 26.1923 22.7052 26.1858 18.4555 26.1944C18.1969 26.1935 17.9412 26.2498 17.7067 26.3594C17.2998 26.5615 17.1049 27.0649 17.207 27.4822C17.3326 27.9798 17.7067 28.3039 18.2221 28.3326C18.4941 28.3483 18.7682 28.3369 19.0409 28.3369H26.0096C26.036 28.3648 26.0667 28.3827 26.066 28.3992C26.0275 29.7544 26.1374 31.1353 25.9111 32.4575C25.5385 34.63 23.7817 36.1859 21.6044 36.5674C21.5501 36.5849 21.498 36.609 21.4495 36.6391L15.0397 36.6369ZM20.7263 33.3444C21.2889 33.3537 21.7971 32.8547 21.8071 32.2847C21.8171 31.7147 21.3217 31.2085 20.7506 31.2013C20.1795 31.1941 19.6798 31.691 19.6705 32.261C19.6612 32.831 20.1567 33.3351 20.7242 33.3444H20.7263Z" fill="#E8E8E8"/>
</svg>
