<svg width="37" height="37" viewBox="0 0 37 37" fill="none" xmlns="http://www.w3.org/2000/svg">
<path d="M17.1596 36.918C16.3588 36.7963 15.5549 36.6899 14.7571 36.5466C14.2432 36.4557 13.7369 36.3109 13.1785 36.1768C15.0195 30.8144 16.8405 25.4875 18.7015 20.0573L24.4623 35.9041C23.7642 36.0936 23.0662 36.3263 22.3497 36.4665C21.4737 36.6375 20.5823 36.7331 19.6971 36.8625C19.6158 36.8748 19.536 36.8995 19.4547 36.918H17.1596Z" fill="#E8E8E8"/>
<path d="M0 17.2342C0.0736399 16.6903 0.13655 16.1448 0.22093 15.6008C0.471959 13.9931 0.936341 12.4264 1.60168 10.9426L10.3464 34.9918L10.2789 35.0657C9.55787 34.6343 8.81225 34.2398 8.12035 33.7636C4.52426 31.2874 2.04506 27.9621 0.799313 23.7631C0.446455 22.5766 0.317581 21.3253 0.0859222 20.1034C0.0598414 19.9647 0.0352948 19.8245 0.00921398 19.6858L0 17.2342Z" fill="#E8E8E8"/>
<path d="M27.5321 29.594L20.9076 9.81012C21.4768 9.76235 22.0168 9.71921 22.5569 9.66836C22.7595 9.65536 22.9607 9.62495 23.1582 9.57744C23.327 9.53135 23.4737 9.42583 23.5714 9.28013C23.6691 9.13444 23.7114 8.9583 23.6906 8.78387C23.6822 8.60687 23.6047 8.44032 23.4749 8.32033C23.3451 8.20033 23.1734 8.13656 22.9971 8.14285C22.4111 8.14285 21.825 8.17675 21.2421 8.22451C18.5849 8.44641 15.9338 8.31081 13.2828 8.13668C12.6246 8.092 12.2442 8.52499 12.4053 9.10438C12.4307 9.23553 12.4978 9.35484 12.5966 9.44433C12.6954 9.53383 12.8205 9.58865 12.953 9.60056C13.5221 9.66373 14.0928 9.72383 14.6651 9.76698C14.7636 9.76529 14.8597 9.79779 14.9371 9.85899C15.0145 9.92019 15.0685 10.0063 15.09 10.1029C15.9615 12.5252 16.8498 14.9429 17.7196 17.3652C17.7868 17.5519 17.7948 17.7548 17.7426 17.9462C16.4723 21.8139 15.1939 25.679 13.9072 29.5416C13.8888 29.5986 13.8597 29.651 13.8014 29.782C11.5645 23.1021 9.35227 16.4838 7.11392 9.81012C7.6785 9.76235 8.21852 9.71767 8.75854 9.66836C8.94953 9.65636 9.13934 9.62957 9.32621 9.58823C9.50239 9.54779 9.65772 9.44394 9.76287 9.29631C9.86802 9.14868 9.91571 8.96748 9.89692 8.78695C9.89267 8.69615 9.8703 8.60714 9.83119 8.52517C9.79207 8.4432 9.737 8.36995 9.66919 8.30975C9.60139 8.24955 9.52224 8.20362 9.43645 8.17469C9.35065 8.14575 9.25996 8.1344 9.16973 8.1413C8.47628 8.15517 7.78897 8.21681 7.09246 8.24146C5.86513 8.28307 4.65312 8.31235 3.43346 8.34317C3.31993 8.34317 3.20487 8.3293 3.06833 8.32005C9.14209 -1.23365 22.7317 -2.74529 30.6327 4.74974C30.1724 4.88996 29.6386 4.96701 29.1921 5.21202C27.7976 5.9532 27.2084 7.48179 27.6073 9.12595C27.8359 10.0613 28.3637 10.8518 28.807 11.687C29.3455 12.6993 29.9331 13.7009 30.332 14.7688C31.0208 16.6179 30.9273 18.5271 30.378 20.3962C29.4882 23.4288 28.537 26.4443 27.6165 29.4676C27.5925 29.5124 27.5642 29.5547 27.5321 29.594Z" fill="#E8E8E8"/>
<path d="M27.6411 34.3276C28.1074 32.9716 28.5738 31.6155 29.0402 30.2595C30.6373 25.6368 32.2466 21.014 33.8268 16.3789C34.4487 14.5205 34.7091 12.5592 34.5939 10.602C34.5801 10.3385 34.5417 10.0781 34.5126 9.7915C35.8565 11.0242 37.0624 17.0739 36.6604 20.3745C35.9148 26.4951 32.8618 31.1147 27.7178 34.383L27.6411 34.3276Z" fill="#E8E8E8"/>
</svg>
